<?xml version="1.0" standalone="no"?>
<!DOCTYPE svg PUBLIC "-//W3C//DTD SVG 20010904//EN"
    "http://www.w3.org/TR/2001/REC-SVG-20010904/DTD/svg10.dtd">
<svg version="1.0" xmlns="http://www.w3.org/2000/svg"
    width="512.000000pt" height="512.000000pt" viewBox="0 0 512.000000 512.000000"
    preserveAspectRatio="xMidYMid meet">

    <g transform="translate(0.000000,512.000000) scale(0.100000,-0.100000)"
        fill="#000000" stroke="none">
        <path d="M1375 4210 c-601 -5 -654 -6 -700 -24 -160 -59 -279 -162 -344 -299
-21 -45 -44 -106 -50 -136 -16 -75 -16 -2308 0 -2383 6 -29 29 -90 50 -135 73
-153 233 -278 397 -312 76 -16 3589 -16 3664 0 98 20 214 84 288 159 74 75
140 194 159 288 15 75 16 2309 0 2383 -32 156 -154 318 -295 391 -134 70 -74
67 -1360 70 -637 2 -1451 1 -1809 -2z m495 -686 l0 -366 -56 51 c-176 161
-443 194 -664 81 -62 -32 -162 -135 -191 -197 l-24 -52 -172 -1 -173 0 0 319
c0 214 4 329 12 352 24 73 88 138 162 166 22 8 183 12 569 12 l537 1 0 -366z
m2511 343 c47 -23 103 -79 126 -126 16 -32 18 -71 21 -368 l3 -333 -705 0
-705 0 -31 59 c-56 105 -159 190 -280 232 -53 19 -86 23 -180 23 -103 -1 -123
-4 -195 -31 -90 -34 -147 -67 -205 -120 l-40 -35 0 361 0 361 1078 -2 c1018
-3 1079 -4 1113 -21z m-2835 -860 c57 -29 110 -84 154 -162 31 -54 100 -211
100 -227 0 -12 -194 -1 -300 17 -95 17 -140 36 -191 82 -53 48 -79 100 -79
161 0 63 30 109 90 140 60 31 152 27 226 -11z m1179 14 c23 -10 53 -33 68 -50
23 -28 27 -42 27 -95 0 -51 -5 -70 -29 -108 -64 -100 -168 -138 -425 -153
l-118 -7 7 23 c16 53 115 247 149 290 79 104 219 147 321 100z m-1771 -353
c47 -106 155 -221 255 -273 65 -33 174 -65 283 -82 l109 -17 -176 -176 c-191
-192 -205 -214 -185 -291 26 -96 122 -144 217 -108 15 6 115 96 221 202 l192
191 0 -442 0 -442 -547 2 c-611 3 -582 0 -656 75 -76 75 -72 32 -75 761 l-2
652 170 0 170 0 24 -52z m3574 -600 c-3 -729 1 -686 -75 -761 -77 -78 20 -72
-1185 -75 l-1078 -2 0 435 c0 239 3 435 8 435 4 0 88 -81 187 -181 99 -99 192
-187 207 -195 35 -18 101 -18 137 1 41 21 79 70 87 111 14 76 -6 107 -188 290
l-170 171 84 12 c274 39 446 145 543 334 l40 77 703 0 702 0 -2 -652z"/>
    </g>
</svg>
