<?xml version="1.0" standalone="no"?>
<!DOCTYPE svg PUBLIC "-//W3C//DTD SVG 20010904//EN"
    "http://www.w3.org/TR/2001/REC-SVG-20010904/DTD/svg10.dtd">
<svg version="1.0" xmlns="http://www.w3.org/2000/svg"
    width="224.000000pt" height="224.000000pt" viewBox="0 0 224.000000 224.000000"
    preserveAspectRatio="xMidYMid meet">

    <g transform="translate(0.000000,224.000000) scale(0.100000,-0.100000)"
        fill="#000000" stroke="none">
        <path d="M1460 2034 c0 -15 49 -56 60 -49 15 9 12 -9 -5 -31 -8 -10 -15 -14
-15 -7 0 18 -37 36 -37 18 0 -8 6 -16 14 -19 24 -9 14 -29 -12 -24 -17 4 -25
1 -25 -9 0 -8 -13 -26 -30 -39 -16 -14 -29 -30 -27 -36 1 -5 -7 -15 -18 -21
-38 -22 -90 -71 -87 -81 2 -6 -6 -2 -17 8 -16 14 -21 16 -21 5 0 -11 -2 -11
-11 1 -9 13 -10 13 -6 0 2 -8 12 -14 22 -12 13 3 16 -1 11 -14 -8 -20 21 -57
37 -47 6 4 8 0 4 -10 -3 -9 1 -21 11 -29 13 -11 15 -11 7 2 -5 9 -5 12 1 7 5
-5 10 -13 10 -18 1 -5 2 -13 3 -19 3 -22 22 -7 72 58 29 37 74 92 100 122 56
67 68 116 44 178 -11 28 -21 39 -31 35 -10 -4 -13 0 -8 13 5 16 4 16 -5 4 -9
-13 -12 -12 -25 5 -9 11 -16 15 -16 9z m89 -122 c0 -11 -2 -12 -6 -4 -2 6 -9
10 -14 7 -5 -4 -6 1 -3 9 8 20 24 11 23 -12z m-271 -217 c-3 -3 -9 2 -12 12
-6 14 -5 15 5 6 7 -7 10 -15 7 -18z"/>
        <path d="M1170 1811 c0 -5 5 -13 10 -16 6 -3 10 -2 10 4 0 5 -4 13 -10 16 -5
3 -10 2 -10 -4z"/>
        <path d="M1036 1594 c-3 -8 -10 -13 -15 -9 -5 3 -12 1 -16 -5 -3 -5 -1 -10 5
-10 7 0 10 -7 6 -15 -3 -8 -3 -15 0 -15 2 0 9 12 14 26 6 14 14 22 20 19 6 -3
7 1 4 9 -8 20 -10 20 -18 0z"/>
        <path d="M986 1538 c-4 -9 -5 -21 -2 -26 3 -6 -1 -15 -9 -22 -8 -7 -15 -17
-15 -23 0 -5 9 2 21 17 11 15 19 36 16 48 -3 20 -5 21 -11 6z"/>
        <path d="M894 1418 c1 -13 -3 -27 -9 -31 -6 -5 -4 -7 5 -4 8 2 14 12 12 22 -2
9 1 14 6 11 5 -3 16 2 23 12 12 15 12 16 -2 5 -11 -9 -19 -9 -26 -2 -7 7 -10
3 -9 -13z"/>
        <path d="M783 1337 c-8 -16 -8 -29 -1 -38 8 -12 9 -12 5 1 -2 8 0 23 5 33 5
10 8 21 5 23 -2 2 -9 -6 -14 -19z"/>
        <path d="M819 1343 c10 -20 9 -22 -6 -16 -16 6 -16 5 -4 -10 16 -20 16 -20 30
-4 8 11 6 18 -10 33 -22 19 -22 19 -10 -3z"/>
        <path d="M845 1350 c3 -5 8 -10 11 -10 2 0 4 5 4 10 0 6 -5 10 -11 10 -5 0 -7
-4 -4 -10z"/>
        <path d="M739 833 c-13 -16 -12 -17 4 -4 9 7 17 15 17 17 0 8 -8 3 -21 -13z"/>
        <path d="M700 760 c6 -11 13 -20 16 -20 2 0 0 9 -6 20 -6 11 -13 20 -16 20 -2
0 0 -9 6 -20z"/>
        <path d="M690 730 c0 -5 5 -10 11 -10 5 0 7 5 4 10 -3 6 -8 10 -11 10 -2 0 -4
-4 -4 -10z"/>
        <path d="M633 686 c3 -8 -2 -21 -12 -30 -15 -14 -18 -14 -18 -1 0 8 5 11 10 8
6 -4 7 -1 2 7 -6 9 -4 11 5 5 9 -6 11 -4 6 4 -15 24 -46 -18 -41 -53 4 -21 2
-26 -4 -17 -5 7 -13 11 -19 7 -11 -7 -227 -265 -475 -568 l-39 -48 264 0 263
0 85 106 c47 58 117 146 157 195 61 77 71 95 68 122 -3 25 -2 28 6 14 6 -9 7
-23 4 -30 -4 -6 10 6 29 28 20 22 35 47 35 55 0 12 -2 12 -6 1 -9 -21 -36 -51
-48 -51 -5 0 -3 5 5 10 13 9 13 11 0 21 -13 9 -12 10 2 5 28 -9 29 9 2 35 -21
19 -27 21 -34 9 -7 -12 -13 -10 -34 9 -14 13 -23 28 -20 32 2 4 -8 15 -23 23
-15 8 -39 26 -52 40 -30 32 -41 33 -34 5 6 -22 6 -22 -26 2 -18 13 -27 25 -21
27 7 3 5 11 -6 23 -20 22 -39 25 -31 5z m-3 -106 c0 -5 -7 -7 -15 -4 -8 4 -15
8 -15 10 0 2 7 4 15 4 8 0 15 -4 15 -10z m220 -208 c0 -13 -12 -22 -22 -16
-10 6 -1 24 13 24 5 0 9 -4 9 -8z"/>
        <path d="M1297 533 c-14 -13 -6 -43 14 -54 21 -11 21 -10 6 11 -8 12 -13 29
-10 36 5 15 1 18 -10 7z"/>
        <path d="M1320 520 c0 -5 5 -10 10 -10 6 0 10 5 10 10 0 6 -4 10 -10 10 -5 0
-10 -4 -10 -10z"/>
        <path d="M1261 488 c-10 -16 -10 -23 0 -32 9 -8 10 -7 6 7 -4 10 -3 15 2 12
13 -7 21 8 12 23 -4 8 -11 5 -20 -10z"/>
        <path d="M1340 490 c0 -5 5 -10 10 -10 6 0 10 5 10 10 0 6 -4 10 -10 10 -5 0
-10 -4 -10 -10z"/>
        <path d="M1272 443 c-6 -16 -11 -21 -11 -12 -1 27 -29 30 -45 7 -8 -12 -12
-26 -9 -31 3 -6 2 -7 -4 -4 -5 3 -38 -29 -74 -71 -35 -42 -73 -88 -86 -102
-23 -26 -135 -166 -166 -206 l-19 -24 231 0 c269 0 281 3 353 83 46 49 62 77
36 61 -7 -4 -8 -3 -4 4 4 6 13 9 21 6 13 -5 42 32 37 49 -1 4 5 7 14 7 10 0
12 5 7 13 -4 6 -6 22 -4 35 2 16 -11 35 -46 67 -26 25 -51 45 -54 45 -10 0
-128 80 -134 91 -12 18 -33 9 -43 -18z m-41 -26 c-10 -9 -11 -8 -5 6 3 10 9
15 12 12 3 -3 0 -11 -7 -18z m296 -179 c-3 -7 -5 -2 -5 12 0 14 2 19 5 13 2
-7 2 -19 0 -25z"/>
        <path d="M1620 315 c-11 -13 -10 -14 4 -9 9 3 16 10 16 15 0 13 -6 11 -20 -6z"/>
        <path d="M1568 299 l24 -9 -21 -26 c-21 -27 -22 -42 -2 -29 6 3 11 12 11 20 0
7 7 15 15 19 24 9 6 36 -24 35 -26 0 -26 0 -3 -10z"/>
    </g>
</svg>
