<?xml version="1.0" standalone="no"?>
<!DOCTYPE svg PUBLIC "-//W3C//DTD SVG 20010904//EN"
    "http://www.w3.org/TR/2001/REC-SVG-20010904/DTD/svg10.dtd">
<svg version="1.0" xmlns="http://www.w3.org/2000/svg"
    width="225.000000pt" height="225.000000pt" viewBox="0 0 225.000000 225.000000"
    preserveAspectRatio="xMidYMid meet">

    <g transform="translate(0.000000,225.000000) scale(0.100000,-0.100000)"
        fill="#000000" stroke="none">
        <path d="M0 1125 l0 -1125 1125 0 1125 0 0 1125 0 1125 -1125 0 -1125 0 0
-1125z m1729 453 c51 -36 61 -65 61 -175 l0 -103 -148 0 c-161 0 -179 -5 -207
-60 -20 -39 -20 -191 0 -230 28 -55 46 -60 207 -60 l148 0 0 -102 c0 -119 -14
-153 -73 -181 -31 -15 -92 -17 -586 -17 -597 0 -590 -1 -641 55 l-25 27 -3
382 -3 382 23 35 c49 72 27 70 658 67 512 -3 567 -5 589 -20z m-65 -394 c38
-38 36 -84 -6 -119 -25 -21 -38 -25 -62 -21 -72 15 -96 96 -42 142 36 32 77
31 110 -2z"/>
    </g>
</svg>
